<svg width="1080" height="1080" viewBox="0 0 1080 1080" fill="none" xmlns="http://www.w3.org/2000/svg">
<path d="M315.193 278.579C319.256 266.295 330.737 258 343.675 258H573.478C593.926 258 608.382 278.008 601.96 297.421L362.807 1020.42C358.744 1032.71 347.263 1041 334.325 1041H104.522C84.0743 1041 69.6183 1020.99 76.0398 1001.58L315.193 278.579Z" fill="black"/>
<path d="M716.193 59.5786C720.256 47.2949 731.737 39 744.675 39H974.478C994.926 39 1009.38 59.0081 1002.96 78.4213L763.807 801.421C759.744 813.705 748.263 822 735.325 822H505.522C485.074 822 470.618 801.992 477.04 782.579L716.193 59.5786Z" fill="black"/>
</svg>
